<svg xmlns="http://www.w3.org/2000/svg" width="44" height="44" viewBox="0 0 44 44" fill="none">
  <g clip-path="url(#clip0_0_109)">
    <rect width="44" height="44" rx="22" fill="#131314"/>
    <g filter="url(#filter0_d_0_109)">
      <circle cx="22" cy="22" r="22.3099" fill="#CDF169" stroke="black" stroke-width="0.619718"/>
      <mask id="mask0_0_109" style="mask-type:alpha" maskUnits="userSpaceOnUse" x="0" y="0" width="44" height="44">
        <circle cx="22" cy="22" r="22" fill="#B5A8ED"/>
      </mask>
      <g mask="url(#mask0_0_109)">
        <path fill-rule="evenodd" clip-rule="evenodd" d="M22.4464 48.0046C25.9412 47.2079 29.4114 46.311 32.8748 45.3836L38.0655 43.9718L38.3898 43.8832L38.4709 43.8611C38.4091 43.877 38.3299 43.8954 38.2595 43.9091C38.1185 43.9389 37.9578 43.9555 37.8303 43.9714C37.3089 44.0229 36.7693 43.9983 36.2548 43.8828C35.2229 43.6519 34.2912 43.1122 33.5877 42.3208C33.2335 41.9287 32.9379 41.4742 32.722 40.9868C32.6661 40.8669 32.6163 40.7434 32.5736 40.618C32.5319 40.4983 32.5001 40.4118 32.471 40.3043L32.4505 40.2269L32.4409 40.1881C32.44 40.1838 32.4367 40.1706 32.4375 40.1733L32.4406 40.1836L32.4658 40.2663L32.5159 40.4315L32.9171 41.7527L34.5241 47.0368L36.1547 52.3135L38.1398 60.8549L39.8019 66.1202C40.9005 69.5999 44.5526 71.5112 47.9595 70.3893C51.2061 69.32 53.0582 65.8821 52.2746 62.5497L52.2683 62.5244L50.6535 53.9184L49.3616 48.5885L48.0607 43.2622L46.7357 37.9435L46.4042 36.6141L46.3625 36.4479L46.3419 36.365L46.2625 36.0796C46.1982 35.8632 46.1393 35.6648 46.0562 35.4385C45.9698 35.2072 45.8764 34.978 45.7767 34.7523C45.3667 33.8512 44.8183 33.0122 44.1606 32.2811C42.8414 30.8238 41.0964 29.7983 39.1804 29.392C38.226 29.1881 37.2324 29.1303 36.2641 29.2366C36.0244 29.2589 35.7541 29.3049 35.502 29.3514C35.3763 29.3751 35.2416 29.403 35.1246 29.4293L35.0421 29.4486L34.712 29.5253L29.4312 30.7588C25.9137 31.5949 22.4029 32.4615 18.9169 33.4282C14.998 34.515 12.6839 38.6407 13.7479 42.6434C14.781 46.5295 18.6189 48.8706 22.4277 48.0089L22.4464 48.0046Z" fill="#FFDC3E"/>
        <path fill-rule="evenodd" clip-rule="evenodd" d="M-3.9035 70.98L5.48397 40.4061C6.179 34.5653 11.1131 31.0047 16.8901 31.2154L27.3429 32.016C32.313 32.1974 36.6332 34.7164 37.8213 39.6315L40.5888 70.98H-3.9035Z" fill="#FFDC3E"/>
        <mask id="mask1_0_109" style="mask-type:alpha" maskUnits="userSpaceOnUse" x="-18" y="28" width="46" height="44">
          <path fill-rule="evenodd" clip-rule="evenodd" d="M-17.959 28.2365H27.9844V71.8682H-17.959V28.2365Z" fill="white"/>
        </mask>
        <g mask="url(#mask1_0_109)">
          <path fill-rule="evenodd" clip-rule="evenodd" d="M22.3698 32.2334C20.7578 31.8313 19.1407 31.4525 17.5254 31.0656L12.6716 29.9407L7.81138 28.844L6.59526 28.5749L6.29123 28.5076L6.13928 28.474L5.83916 28.4125L5.50547 28.3535C4.61252 28.2135 3.68627 28.1949 2.78159 28.3221C0.968058 28.5646 -0.745438 29.3457 -2.12888 30.5385C-2.81959 31.1375 -3.429 31.8375 -3.93244 32.6128C-4.4321 33.3914 -4.81851 34.2389 -5.08371 35.1121L-4.66359 34.0302L-7.87688 41.1542C-8.94672 43.5294 -10.0238 45.9011 -11.0797 48.2834L-14.2598 55.424C-15.3076 57.8102 -16.3667 60.1907 -17.4039 62.5822C-18.8533 65.924 -17.3694 69.8298 -14.0894 71.3067C-10.9707 72.7106 -7.33961 71.3904 -5.7453 68.3866C-4.53079 66.0833 -3.33812 63.7692 -2.13427 61.4605L1.44103 54.5169C2.63706 52.2043 3.81179 49.8813 4.9938 47.5618L8.5358 40.6014L8.95592 39.5195C8.82015 39.9909 8.60928 40.4532 8.33451 40.8758C8.06485 41.3016 7.73292 41.6839 7.35662 42.0072C6.61036 42.6591 5.68236 43.0791 4.69315 43.2162C4.19928 43.2801 3.69234 43.2807 3.20858 43.2022C3.14818 43.1933 3.08792 43.1828 3.02805 43.1707L2.88096 43.1379L3.03237 43.174L3.33532 43.2467L4.54659 43.5374L9.39652 44.6803L14.2527 45.7948C15.8742 46.1543 17.4936 46.522 19.1184 46.8665C23.1003 47.7108 27 45.1063 27.8286 41.0496C28.6386 37.0832 26.1997 33.1937 22.3698 32.2334Z" fill="#FFDC3E"/>
        </g>
        <path fill-rule="evenodd" clip-rule="evenodd" d="M33.4302 29.6774C33.689 29.4206 36.4673 28.8258 36.5285 29.2106C36.5892 29.5949 36.4769 33.0859 36.1188 34.6741C35.7601 36.2627 34.9289 39.3703 34.9505 41.0769C34.972 42.7835 36.0535 48.3081 35.5961 49.6198C35.1387 50.931 31.0395 54.9305 29.1008 56.8491C27.1621 58.7672 24.4795 60.63 22.9285 60.5732C21.3769 60.5169 17.4387 57.5895 16.4115 57.722C15.3845 57.854 13.7116 59.015 12.2616 59.2053C10.8115 59.3955 8.00886 59.5744 6.59452 59.7373C5.17962 59.9007 3.05222 60.3407 1.61143 60.0076L1.89589 56.2144C1.89589 56.2144 3.90327 56.5745 5.85685 56.4515C7.81087 56.3295 10.7035 55.6484 11.7133 54.9467C12.7231 54.2449 16.7453 51.6151 18.9976 49.9305C21.2505 48.245 26.0374 45.0445 28.6921 41.9536C31.3473 38.8627 32.0701 37.6009 32.8591 33.8611C33.6482 30.1218 33.4302 29.6774 33.4302 29.6774Z" fill="#D9B8FF"/>
        <path fill-rule="evenodd" clip-rule="evenodd" d="M32.8938 41.2991C33.0718 42.2715 33.148 43.2564 33.0843 44.2578C33.0415 44.7594 32.9998 45.2669 32.7275 45.8C32.4458 46.2868 32.1032 46.6403 31.7624 47.0099C30.3753 48.4381 28.8597 49.6746 27.3531 50.9237C25.8095 52.113 24.39 53.4214 22.8526 54.6593C22.4657 54.9676 22.0822 55.2735 21.6438 55.5515C21.5245 55.6176 21.425 55.6887 21.2814 55.7478C21.1861 55.8038 20.9118 55.8815 20.7852 55.8508C20.4913 55.8236 20.2569 55.7625 20.011 55.7012C19.0502 55.4331 18.1412 55.0664 17.2603 54.6155L17.2775 54.5645C18.2505 54.7197 19.2056 54.9409 20.1432 55.126C20.3725 55.1722 20.6172 55.2148 20.8097 55.2205L20.8764 55.2214C20.8887 55.2161 20.8984 55.2106 20.9095 55.2073C20.9234 55.2094 20.9723 55.1846 21.0153 55.1625C21.0985 55.1294 21.1982 55.0562 21.2907 55.0021C21.671 54.7471 22.0447 54.4347 22.412 54.1245C23.8743 52.8675 25.3167 51.5158 26.8584 50.3108C28.3734 49.095 29.9056 47.8784 31.2596 46.5253C31.5856 46.1876 31.926 45.8283 32.1365 45.4716C32.3295 45.14 32.411 44.6532 32.4854 44.1927C32.6195 43.253 32.6929 42.2808 32.7842 41.3053L32.8938 41.2991Z" fill="#1F2626"/>
        <path fill-rule="evenodd" clip-rule="evenodd" d="M-4.67706 34.0944C-5.83709 36.4205 -6.96504 38.7626 -8.08315 41.1095L-9.74824 44.636L-11.3943 48.1716C-12.4894 50.5301 -13.5877 52.887 -14.6654 55.2539C-15.754 57.6153 -16.8194 59.9886 -17.888 62.3601L-18.1092 62.8511C-19.6876 66.3539 -18.1743 70.4945 -14.7291 72.0993C-13.1479 72.8359 -11.423 72.9067 -9.87915 72.4329L25.0539 61.6571C27.7862 60.8143 29.329 57.879 28.5001 55.1011C27.7253 52.5044 25.1286 50.9695 22.5648 51.4676L-13.2676 58.5623L-5.25869 68.635C-4.07533 66.3204 -2.8882 64.0078 -1.72479 61.6834C-0.550596 59.3644 0.603374 57.0352 1.76044 54.7077L3.49254 51.2145L5.20576 47.712C6.33965 45.3729 7.46395 43.0291 8.5559 40.6693C10.2877 36.9269 8.70785 32.4661 5.02726 30.7054C1.41623 28.9779 -2.88078 30.5025 -4.67706 34.0944Z" fill="#FFDC3E"/>
        <path fill-rule="evenodd" clip-rule="evenodd" d="M20.6394 41.723C19.0932 41.723 17.6189 41.2244 16.3758 40.2812C14.5986 38.9324 13.5196 36.7239 13.4897 34.3731C13.4831 33.862 13.5369 33.325 13.6542 32.7315L14.0568 30.4204C14.0748 30.3168 14.1714 30.2472 14.274 30.2658C14.3758 30.2843 14.4437 30.3834 14.4257 30.487L14.0221 32.8023C13.9094 33.3734 13.858 33.8841 13.8642 34.3683C13.893 36.601 14.9153 38.6971 16.5996 39.9752C17.7776 40.869 19.1745 41.3414 20.6394 41.3414C22.01 41.3414 23.3323 40.9233 24.4637 40.1322C26.2827 38.8598 27.3825 36.7007 27.4057 34.3564C27.4107 33.8486 27.3519 33.3142 27.2258 32.7222L26.9384 31.454C26.9151 31.3513 26.978 31.2489 27.0787 31.2252C27.1793 31.2015 27.2802 31.2655 27.3034 31.3683L27.5915 32.6389C27.724 33.2616 27.7856 33.8238 27.7804 34.3603C27.7558 36.8287 26.5953 39.104 24.6757 40.4465C23.4819 41.2816 22.086 41.723 20.6394 41.723Z" fill="#21211D"/>
        <path fill-rule="evenodd" clip-rule="evenodd" d="M-0.0782221 55.8798C-0.0900867 55.8798 -0.102086 55.8786 -0.11422 55.8762C-0.21426 55.8557 -0.279517 55.7551 -0.259698 55.6516L2.33704 42.0124C2.35672 41.9087 2.45379 41.8412 2.55397 41.8617C2.65401 41.8822 2.71926 41.9827 2.69945 42.0864L0.102711 55.7255C0.0853182 55.8167 0.00806606 55.8798 -0.0782221 55.8798Z" fill="#21211D"/>
        <path fill-rule="evenodd" clip-rule="evenodd" d="M41.5388 70.98L36.9495 42.617C36.9345 42.5248 37.0666 42.4965 37.0886 42.5874L43.6895 69.5968L41.5388 70.98Z" fill="#21211D"/>
        <path fill-rule="evenodd" clip-rule="evenodd" d="M26.004 31.5795L26.26 33.7832C26.2945 34.0976 26.3076 34.4506 26.2886 34.777C26.107 37.8979 23.4587 40.2788 20.3737 40.095C17.2886 39.9113 14.935 37.2323 15.1167 34.1113L15.3251 30.5324C15.3251 30.5324 19.172 31.8123 26.004 31.5795Z" fill="#DE8857"/>
        <path fill-rule="evenodd" clip-rule="evenodd" d="M18.1545 9.02345C18.1545 9.38936 17.8579 9.68611 17.4918 9.68611C17.1259 9.68611 16.8293 9.38936 16.8293 9.02345C16.8293 8.65753 17.1259 8.36078 17.4918 8.36078C17.8579 8.36078 18.1545 8.65753 18.1545 9.02345Z" fill="#21211D"/>
        <path fill-rule="evenodd" clip-rule="evenodd" d="M30.4551 26.2403C29.2892 27.4554 27.6954 27.6556 26.0111 27.318C21.7125 26.4562 16.8034 22.0928 16.8034 22.0928C15.8298 21.3293 14.7936 20.2831 14.1399 19.129L14.1065 19.068C13.9377 18.7678 13.7983 18.4577 13.6904 18.1455C13.6884 18.1376 13.6845 18.1298 13.6825 18.1219C13.6315 17.9688 13.5884 17.8137 13.5549 17.6587C13.4352 17.117 13.337 16.9069 13.2272 16.536C13.1428 16.2533 13.0524 15.8744 12.9425 15.1815C12.5912 12.9635 13.5177 11.0007 15.5041 9.92902C18.1794 8.48437 21.6458 8.11333 24.5037 9.33229C24.5116 9.33619 24.5194 9.33822 24.5273 9.34213C25.2575 9.65613 25.9131 10.082 26.5039 10.5925C27.0672 11.0753 27.5736 11.6367 28.031 12.2452C29.3088 13.9391 30.2038 16.006 30.9242 17.8667C31.9468 20.5069 32.6339 23.9693 30.4551 26.2403Z" fill="#DE8857"/>
        <path fill-rule="evenodd" clip-rule="evenodd" d="M24.3413 17.6474L26.0942 32.5573C26.4404 35.5019 24.3339 38.1697 21.3893 38.5158C18.4447 38.862 15.7771 36.7557 15.4309 33.8111C15.3947 33.503 15.3878 33.1682 15.4035 32.8687L16.2862 17.8819C16.4175 15.6517 18.3318 13.9504 20.5619 14.0818C22.5504 14.1989 24.118 15.7352 24.3413 17.6474Z" fill="#DE8857"/>
        <path fill-rule="evenodd" clip-rule="evenodd" d="M25.4678 27.1548C25.4678 27.1548 24.1949 26.9425 22.5087 26.0758C22.3024 25.9698 22.0985 26.2206 22.2471 26.3987L25.7767 29.9743L25.4678 27.1548Z" fill="#21211D"/>
        <path fill-rule="evenodd" clip-rule="evenodd" d="M15.978 22.9446C15.978 22.9446 16.3838 22.7026 16.676 22.2742C16.7206 22.209 16.8215 22.2276 16.8367 22.3051C16.9408 22.8343 17.034 24.2346 15.8374 25.3875L15.978 22.9446Z" fill="#21211D"/>
        <path fill-rule="evenodd" clip-rule="evenodd" d="M24.5273 9.34185C24.5194 9.33794 24.5116 9.33592 24.5037 9.33201C21.6458 8.11306 18.1794 8.48409 15.504 9.92875C13.5176 11.0005 12.5912 12.9633 12.9425 15.1814C13.1957 16.7811 13.3449 16.7006 13.5549 17.6584C13.5882 17.8135 13.6315 17.9686 13.6825 18.1217C13.6845 18.1295 13.6884 18.1374 13.6904 18.1453L16.0693 18.3869C16.452 18.5066 16.7701 18.7734 16.9566 19.1287L17.4551 20.0766C17.6887 20.5438 18.2402 20.7578 18.729 20.5694C19.1314 20.4144 19.3787 20.0296 19.3787 19.6234C19.3787 19.5094 19.359 19.3936 19.3198 19.2817L17.5048 14.2023" fill="#CFCFCF"/>
        <path fill-rule="evenodd" clip-rule="evenodd" d="M17.2925 20.6224C17.1949 22.3048 15.752 23.5895 14.0696 23.4919C12.3873 23.3944 11.1027 21.9515 11.2001 20.2692C11.2978 18.5869 12.7407 17.3021 14.423 17.3997C16.1054 17.4972 17.39 18.9401 17.2925 20.6224Z" fill="#DE8857"/>
        <path fill-rule="evenodd" clip-rule="evenodd" d="M15.2625 20.8093L12.8666 19.8056C12.7666 19.7638 12.7195 19.6488 12.7613 19.5487C12.8032 19.4488 12.9182 19.4016 13.0183 19.4436L15.4141 20.4472C15.5142 20.4891 15.5612 20.6041 15.5194 20.704C15.4879 20.7793 15.4149 20.8246 15.3382 20.8246C15.313 20.8246 15.2873 20.8197 15.2625 20.8093Z" fill="#21211D"/>
        <path fill-rule="evenodd" clip-rule="evenodd" d="M13.849 21.2457C13.8257 21.2457 13.8021 21.2415 13.779 21.2328C13.6776 21.1941 13.6269 21.0806 13.6656 20.9793L14.0098 20.0787C14.0484 19.9774 14.1621 19.9267 14.2632 19.9653C14.3644 20.004 14.4151 20.1175 14.3764 20.2187L14.0324 21.1194C14.0026 21.1976 13.928 21.2457 13.849 21.2457Z" fill="#21211D"/>
        <path fill-rule="evenodd" clip-rule="evenodd" d="M26.504 10.5923L13.2272 16.5358C13.1506 16.2787 13.0683 15.9431 12.9721 15.3659C12.9623 15.307 12.9525 15.2462 12.9426 15.1815C12.8916 14.8556 12.866 14.5239 12.874 14.1942C12.8877 13.3167 13.1134 12.4511 13.5825 11.6973C14.3147 10.5177 15.4963 9.90133 16.7054 9.30661C17.1903 9.06919 17.685 8.84538 18.1932 8.65689C20.1777 7.91886 22.2878 7.86196 24.1741 8.90821C24.9965 9.36553 25.7915 9.97791 26.504 10.5923Z" fill="#D9B8FF"/>
        <mask id="mask2_0_109" style="mask-type:alpha" maskUnits="userSpaceOnUse" x="13" y="7" width="20" height="10">
          <path fill-rule="evenodd" clip-rule="evenodd" d="M13.03 7.74918H32.884V16.7335H13.03V7.74918Z" fill="white"/>
        </mask>
        <g mask="url(#mask2_0_109)">
          <path fill-rule="evenodd" clip-rule="evenodd" d="M13.2263 16.7335C13.1509 16.7335 13.0791 16.6898 13.0466 16.6164C13.0029 16.5172 13.0478 16.4014 13.1469 16.3576L32.6082 7.76597C32.7073 7.72215 32.8233 7.76705 32.8671 7.86628C32.9108 7.96537 32.8659 8.08132 32.7668 8.12514L13.3055 16.7167C13.2797 16.7281 13.2527 16.7335 13.2263 16.7335Z" fill="#21211D"/>
        </g>
        <path fill-rule="evenodd" clip-rule="evenodd" d="M15.2156 13.998C15.2156 14.21 15.092 14.4102 14.8879 14.5045L12.9721 15.3661C12.9623 15.3073 12.9525 15.2464 12.9426 15.1817C12.8916 14.8558 12.866 14.5241 12.874 14.1944L14.4285 13.4896C14.723 13.3561 15.0684 13.5015 15.1803 13.8038C15.2039 13.8685 15.2156 13.9333 15.2156 13.998Z" fill="#CFCFCF"/>
        <path fill-rule="evenodd" clip-rule="evenodd" d="M32.3465 17.9123C32.3465 17.9123 31.3437 19.152 29.713 19.0939C29.0219 19.0682 28.2175 18.8126 27.3328 18.1259C27.3328 18.1259 28.1946 17.1371 29.629 17.0415C30.3892 16.9884 31.3083 17.1837 32.3465 17.9123Z" fill="white"/>
        <path fill-rule="evenodd" clip-rule="evenodd" d="M32.3466 17.9123C32.3466 17.9123 31.3438 19.152 29.713 19.0939C29.484 18.8173 29.345 18.4713 29.3285 18.0857C29.3121 17.7 29.4242 17.3365 29.629 17.0415C30.3892 16.9884 31.3083 17.1837 32.3466 17.9123Z" fill="#21211D"/>
        <path d="M25.974 17.1807C26.0756 17.1528 26.1803 17.2074 26.217 17.3039L26.2231 17.3224L27.0641 20.3863C27.2153 20.9371 26.8101 21.4805 26.2447 21.4982L26.2137 21.4986L25.5135 21.4966C25.4016 21.4963 25.3111 21.4053 25.3115 21.2934C25.3118 21.1877 25.393 21.1011 25.4962 21.0921L25.5147 21.0913L26.2148 21.0934C26.5198 21.0942 26.7439 20.8119 26.6793 20.5181L26.6733 20.4936L25.8322 17.4297C25.8026 17.3218 25.8661 17.2103 25.974 17.1807Z" fill="#21211D"/>
        <path d="M28.0137 15.4829C29.2168 15.0115 30.5689 15.0144 31.9324 15.807C32.029 15.8633 32.0619 15.9873 32.0057 16.0841C31.9494 16.1808 31.8253 16.2136 31.7286 16.1574C30.4831 15.4333 29.2579 15.4307 28.1616 15.8602C28.003 15.9223 27.8621 15.9887 27.7408 16.0548L27.6774 16.0902C27.6405 16.1115 27.6143 16.1279 27.5993 16.138C27.5066 16.2006 27.3807 16.1763 27.318 16.0835C27.2553 15.9908 27.2797 15.8649 27.3724 15.8022L27.3981 15.7854C27.4325 15.7635 27.4825 15.7339 27.547 15.6988C27.6827 15.6249 27.8389 15.5514 28.0137 15.4829Z" fill="#21211D"/>
        <path fill-rule="evenodd" clip-rule="evenodd" d="M25.2913 17.9123C25.2913 17.9123 24.2884 19.152 22.6577 19.0939C21.9666 19.0682 21.1622 18.8125 20.2775 18.1259C20.2775 18.1259 21.1392 17.1371 22.5737 17.0415C23.3339 16.9883 24.253 17.1837 25.2913 17.9123Z" fill="white"/>
        <path fill-rule="evenodd" clip-rule="evenodd" d="M25.2912 17.9123C25.2912 17.9123 24.2884 19.152 22.6577 19.0939C22.4286 18.8173 22.2896 18.4713 22.2732 18.0857C22.2567 17.7 22.3689 17.3365 22.5737 17.0415C23.3338 16.9884 24.2529 17.1837 25.2912 17.9123Z" fill="#21211D"/>
        <path d="M20.3287 15.807C21.692 15.0144 23.0441 15.0115 24.2472 15.4829C24.4221 15.5514 24.5782 15.6249 24.714 15.6988L24.7657 15.7275C24.8218 15.7593 24.8631 15.7849 24.8886 15.8022C24.9813 15.8648 25.0057 15.9908 24.943 16.0835C24.8804 16.1763 24.7544 16.2006 24.6617 16.138L24.6309 16.1183C24.6048 16.1022 24.5677 16.0806 24.5202 16.0548C24.3989 15.9887 24.2579 15.9223 24.0994 15.8602C23.003 15.4307 21.7779 15.4333 20.5324 16.1574C20.4356 16.2136 20.3116 16.1808 20.2553 16.0841C20.1991 15.9873 20.2319 15.8633 20.3287 15.807Z" fill="#21211D"/>
        <path d="M24.2437 21.9137C24.343 21.8787 24.4514 21.9257 24.4948 22.0193L24.5091 22.0549C24.5167 22.0729 24.5292 22.0995 24.5468 22.1322C24.5893 22.211 24.6438 22.2902 24.7107 22.3636C24.9316 22.6059 25.2308 22.7314 25.6395 22.6827C25.7507 22.6695 25.8515 22.7488 25.8647 22.86C25.878 22.9711 25.7986 23.0719 25.6875 23.0852C25.1422 23.1501 24.7164 22.9715 24.4112 22.6367C24.2553 22.4657 24.1631 22.2945 24.12 22.1722C24.0827 22.0666 24.1381 21.9509 24.2437 21.9137Z" fill="#21211D"/>
        <path opacity="0.01" d="M22.8229 21.3943C23.4833 20.9173 24.2692 20.8358 25.1364 21.1393C26.0299 21.4519 26.6409 21.7245 26.9517 22.7284C27.0177 22.9418 26.8983 23.1683 26.6849 23.2344C26.4716 23.3004 26.2449 23.181 26.1789 22.9676C25.9413 22.1999 25.5107 22.1272 24.8693 21.9028C24.241 21.6831 23.7317 21.7358 23.2967 22.0501C23.1156 22.1809 22.8628 22.1401 22.7321 21.9591C22.6011 21.778 22.6419 21.5252 22.8229 21.3943Z" fill="#ED6629"/>
      </g>
    </g>
  </g>
  <defs>
    <filter id="filter0_d_0_109" x="-0.61972" y="-0.61972" width="45.8592" height="45.8592" filterUnits="userSpaceOnUse" color-interpolation-filters="sRGB">
      <feFlood flood-opacity="0" result="BackgroundImageFix"/>
      <feColorMatrix in="SourceAlpha" type="matrix" values="0 0 0 0 0 0 0 0 0 0 0 0 0 0 0 0 0 0 127 0" result="hardAlpha"/>
      <feOffset dx="0.619718" dy="0.619718"/>
      <feComposite in2="hardAlpha" operator="out"/>
      <feColorMatrix type="matrix" values="0 0 0 0 0 0 0 0 0 0 0 0 0 0 0 0 0 0 1 0"/>
      <feBlend mode="normal" in2="BackgroundImageFix" result="effect1_dropShadow_0_109"/>
      <feBlend mode="normal" in="SourceGraphic" in2="effect1_dropShadow_0_109" result="shape"/>
    </filter>
    <clipPath id="clip0_0_109">
      <rect width="44" height="44" rx="22" fill="white"/>
    </clipPath>
  </defs>
</svg>